<svg width="211" height="139" viewBox="0 0 211 139" fill="none" xmlns="http://www.w3.org/2000/svg">
<rect x="3.5" y="3.5" width="203.531" height="131.642" rx="3.5" fill="white" stroke="#585858" stroke-width="7"/>
<path d="M74.9697 52.376L143.777 132.48H6.16211L74.9697 52.376Z" fill="#585858"/>
<path d="M152.506 74.9695L202.314 132.48H102.697L152.506 74.9695Z" fill="#585858"/>
<path d="M153.396 75.2987L153.725 74.9224L152.972 74.2639L152.643 74.6402L153.396 75.2987ZM102.321 132.151C102.139 132.359 102.16 132.675 102.368 132.857C102.576 133.038 102.892 133.017 103.074 132.81L102.321 132.151ZM152.643 74.6402L102.321 132.151L103.074 132.81L153.396 75.2987L152.643 74.6402Z" fill="white"/>
<circle cx="125.292" cy="36.9712" r="20.5396" fill="#585858"/>
</svg>
